<svg xmlns="http://www.w3.org/2000/svg" viewBox="0 0 123.2 45.7">
  <defs>
    <linearGradient id="g" x1="0%" y1="0%" x2="100%" y2="100%">
      <stop offset="0%" stop-color="#60A5FA"/>
      <stop offset="100%" stop-color="#2563EB"/>
    </linearGradient>
  </defs>
  <path d="M77 0V92H198V371Q198 404 166 404H87V496H206Q247 496 273.0 472.5Q299 449 299 407V395H304Q315 451 351.5 479.5Q388 508 458 508H535V396H427Q368 396 336.0 355.0Q304 314 304 257V92H458V0Z" fill="url(#g)" transform="translate(4.00,33.74) scale(0.032000,-0.032000)"/>
  <path d="M306 -12Q234 -12 179.0 20.5Q124 53 93.0 111.0Q62 169 62 246Q62 324 92.5 383.0Q123 442 178.5 475.0Q234 508 307 508Q379 508 431.0 475.5Q483 443 511.5 389.0Q540 335 540 270Q540 260 540.0 248.5Q540 237 539 223H166Q171 154 211.0 118.5Q251 83 305 83Q352 83 379.5 102.5Q407 122 420 156H527Q509 85 452.0 36.5Q395 -12 306 -12ZM306 416Q257 416 219.0 386.5Q181 357 170 304H434Q430 354 395.0 385.0Q360 416 306 416Z" fill="url(#g)" transform="translate(23.20,33.74) scale(0.032000,-0.032000)"/>
  <path d="M327 -12Q272 -12 234.5 10.5Q197 33 177 73H171L162 0H71V720H177V432Q195 462 234.0 485.0Q273 508 327 508Q389 508 438.0 478.5Q487 449 515.5 391.0Q544 333 544 248Q544 163 515.5 105.0Q487 47 438.0 17.5Q389 -12 327 -12ZM305 89Q362 89 399.5 128.5Q437 168 437 247Q437 327 399.5 367.0Q362 407 305 407Q248 407 210.5 367.5Q173 328 173 248Q173 169 210.5 129.0Q248 89 305 89Z" fill="url(#g)" transform="translate(42.40,33.74) scale(0.032000,-0.032000)"/>
  <path d="M256 -12Q166 -12 119.5 43.5Q73 99 73 205V496H179V218Q179 157 205.5 122.5Q232 88 287 88Q342 88 379.0 125.0Q416 162 416 232V496H522V0H430L421 74H416Q396 38 354.0 13.0Q312 -12 256 -12Z" fill="url(#g)" transform="translate(61.60,33.74) scale(0.032000,-0.032000)"/>
  <path d="M78 0V496H170L179 422H184Q204 458 246.0 483.0Q288 508 343 508Q434 508 480.0 453.0Q526 398 526 291V0H420V278Q420 340 394.0 374.0Q368 408 312 408Q257 408 220.5 371.0Q184 334 184 264V0Z" fill="url(#g)" transform="translate(80.80,33.74) scale(0.032000,-0.032000)"/>
  <path d="M300 -12Q229 -12 173.0 20.0Q117 52 85.0 110.5Q53 169 53 248Q53 327 85.0 385.5Q117 444 173.0 476.0Q229 508 301 508Q373 508 428.5 476.0Q484 444 515.5 385.5Q547 327 547 248Q547 169 515.0 110.5Q483 52 427.5 20.0Q372 -12 300 -12ZM300 89Q338 89 370.0 106.0Q402 123 421.5 158.5Q441 194 441 248Q441 303 421.5 338.0Q402 373 370.5 390.0Q339 407 301 407Q263 407 231.0 390.0Q199 373 179.5 338.0Q160 303 160 248Q160 166 201.5 127.5Q243 89 300 89Z" fill="url(#g)" transform="translate(100.00,33.74) scale(0.032000,-0.032000)"/>
</svg>
