<svg xmlns="http://www.w3.org/2000/svg" viewBox="-28.27 6.54 566.05 566.05" width="512" height="512">
	<g id="mark">
		<path d="M422.01 392.89L422.01 469.35A30 30 0 0 1 403.25 497.17L318.71 531.28A90 90 0 0 1 251.29 531.28L106.26 472.69A30 30 0 0 1 87.5 444.87L87.5 368.41A45 45 0 0 0 100.64 376.59L245.67 435.19A105 105 0 0 0 324.33 435.19L408.86 401.07A45 45 0 0 0 422.01 392.89Z" fill="#8B5CF6"/>
		<path d="M285 442.83A105 105 0 0 0 324.33 435.19L408.86 401.07A45 45 0 0 0 422.01 392.89L422.01 469.35A30 30 0 0 1 403.25 497.17L318.71 531.28A90 90 0 0 1 285 537.83Z" fill="#6F48C6"/>
		<path d="M128.74 43.48L255.63 94.75A90 90 0 0 1 300.46 134.26L418.19 344.7A30 30 0 0 1 403.25 387.17L318.71 421.28A90 90 0 0 1 251.29 421.28L106.26 362.69A30 30 0 0 1 87.5 334.87L87.5 71.3A30 30 0 0 1 128.74 43.48Z" fill="#0697f3"/>
		<path d="M285 114.01A90 90 0 0 1 300.46 134.26L418.19 344.7A30 30 0 0 1 403.25 387.17L318.71 421.28A90 90 0 0 1 285 427.83Z" fill="#0478C3"/>
	</g>
</svg>
